<svg width="42" height="49" viewBox="0 0 42 49" fill="none" xmlns="http://www.w3.org/2000/svg">
<path fill-rule="evenodd" clip-rule="evenodd" d="M42 21C42 9.40202 32.598 0 21 0C9.40202 0 0 9.40202 0 21C0 23.8711 0.576173 26.6076 1.6192 29.1003C5.94533 40.912 21.1104 49 21.1104 49C21.1104 49 39.7389 39.0648 41.5928 25.1361C41.8599 23.7989 42 22.4158 42 21Z" fill="white"/>
<path fill-rule="evenodd" clip-rule="evenodd" d="M38.6509 24.7849L38.6318 24.8814L38.619 24.9789C37.8426 30.8763 33.4427 36.2795 28.6948 40.4276C26.3812 42.4489 24.1126 44.0616 22.42 45.1691C21.9283 45.4908 21.4872 45.7686 21.1104 46C20.8599 45.8462 20.5811 45.672 20.2779 45.4779C18.8615 44.5714 16.9286 43.2433 14.8719 41.5641C10.6804 38.142 6.31788 33.5375 4.4362 28.3436L4.41287 28.2792L4.38668 28.2159C3.4944 26.0601 3 23.691 3 21.1975C3 11.1473 11.0589 3 21 3C30.9411 3 39 11.1473 39 21.1975C39 22.4283 38.8796 23.6276 38.6509 24.7849Z" fill="#F75751"/>
<path d="M29 21C29 16.5817 25.4183 13 21 13C16.5817 13 13 16.5817 13 21C13 25.4183 16.5817 29 21 29C25.4183 29 29 25.4183 29 21Z" fill="white"/>
<path d="M20.9927 26.1465C18.5757 26.1465 16.8325 24.8721 16.8325 23.1436C16.8325 21.8105 17.8579 20.7266 19.1763 20.5215V20.4482C18.0337 20.2285 17.2427 19.2617 17.2427 18.1045C17.2427 16.4492 18.8247 15.248 20.9927 15.248C23.1606 15.248 24.7427 16.4492 24.7573 18.1045C24.7427 19.2764 23.937 20.2285 22.8237 20.4482V20.5215C24.1128 20.7266 25.1528 21.8105 25.1528 23.1436C25.1528 24.8721 23.4097 26.1465 20.9927 26.1465ZM20.9927 24.4619C22.106 24.4619 22.853 23.832 22.853 22.9238C22.853 22.001 22.0767 21.3271 20.9927 21.3271C19.9087 21.3271 19.1177 22.001 19.1323 22.9238C19.1177 23.832 19.8647 24.4619 20.9927 24.4619ZM20.9927 19.7744C21.9302 19.7744 22.604 19.1738 22.604 18.3242C22.604 17.5039 21.9448 16.918 20.9927 16.918C20.0405 16.918 19.396 17.4893 19.396 18.3242C19.396 19.1738 20.0552 19.7744 20.9927 19.7744Z" fill="black"/>
</svg>
