<svg width="42" height="49" viewBox="0 0 42 49" fill="none" xmlns="http://www.w3.org/2000/svg">
<path fill-rule="evenodd" clip-rule="evenodd" d="M42 21C42 9.40202 32.598 0 21 0C9.40202 0 0 9.40202 0 21C0 23.8711 0.576173 26.6076 1.6192 29.1003C5.94533 40.912 21.1104 49 21.1104 49C21.1104 49 39.7389 39.0648 41.5928 25.1361C41.8599 23.7989 42 22.4158 42 21Z" fill="white"/>
<path fill-rule="evenodd" clip-rule="evenodd" d="M38.6509 24.7849L38.6318 24.8814L38.619 24.9789C37.8426 30.8763 33.4427 36.2795 28.6948 40.4276C26.3812 42.4489 24.1126 44.0616 22.42 45.1691C21.9283 45.4908 21.4872 45.7686 21.1104 46C20.8599 45.8462 20.5811 45.672 20.2779 45.4779C18.8615 44.5714 16.9286 43.2433 14.8719 41.5641C10.6804 38.142 6.31788 33.5375 4.4362 28.3436L4.41287 28.2792L4.38668 28.2159C3.4944 26.0601 3 23.691 3 21.1975C3 11.1473 11.0589 3 21 3C30.9411 3 39 11.1473 39 21.1975C39 22.4283 38.8796 23.6276 38.6509 24.7849Z" fill="#F75751"/>
<path d="M29 21C29 16.5817 25.4183 13 21 13C16.5817 13 13 16.5817 13 21C13 25.4183 16.5817 29 21 29C25.4183 29 29 25.4183 29 21Z" fill="white"/>
<path d="M21.0293 26.1465C18.8174 26.1465 17.2061 24.8428 17.1621 23.0117H19.3008C19.3447 23.8467 20.1064 24.4033 21.0293 24.4033C22.1279 24.4033 22.9043 23.627 22.9043 22.5283C22.9043 21.4004 22.1133 20.624 21 20.6094C20.209 20.6094 19.6523 20.9023 19.3301 21.5029H17.3379L17.9092 15.3945H24.4424V17.1963H19.7256L19.4326 19.877H19.5205C19.916 19.3496 20.707 18.9834 21.6445 18.9834C23.5928 18.9834 25.043 20.4336 25.043 22.4697C25.043 24.6084 23.417 26.1465 21.0293 26.1465Z" fill="black"/>
</svg>
