<svg width="42" height="49" viewBox="0 0 42 49" fill="none" xmlns="http://www.w3.org/2000/svg">
<path fill-rule="evenodd" clip-rule="evenodd" d="M42 21C42 9.40202 32.598 0 21 0C9.40202 0 0 9.40202 0 21C0 23.8711 0.576173 26.6076 1.6192 29.1003C5.94533 40.912 21.1104 49 21.1104 49C21.1104 49 39.7389 39.0648 41.5928 25.1361C41.8599 23.7989 42 22.4158 42 21Z" fill="white"/>
<path fill-rule="evenodd" clip-rule="evenodd" d="M38.6509 24.7849L38.6318 24.8814L38.619 24.9789C37.8426 30.8763 33.4427 36.2795 28.6948 40.4277C26.3812 42.4489 24.1126 44.0616 22.42 45.1691C21.9283 45.4908 21.4872 45.7686 21.1104 46C20.8599 45.8462 20.5811 45.672 20.2779 45.4779C18.8615 44.5714 16.9286 43.2433 14.8719 41.5641C10.6804 38.142 6.31788 33.5375 4.4362 28.3436L4.41287 28.2792L4.38668 28.2159C3.4944 26.0601 3 23.691 3 21.1975C3 11.1473 11.0589 3 21 3C30.9411 3 39 11.1473 39 21.1975C39 22.4283 38.8796 23.6276 38.6509 24.7849Z" fill="#F75751"/>
<path d="M29 21C29 16.5817 25.4183 13 21 13C16.5817 13 13 16.5817 13 21C13 25.4183 16.5817 29 21 29C25.4183 29 29 25.4183 29 21Z" fill="white"/>
<path d="M25.2793 14.1641V21.0781H24.1367V14.1641H25.2793ZM25.2793 21.6934V24.7109H17.9697V26.1172H25.748V27.04H16.8418V23.8613H24.1367V22.6016H16.8125V21.6934H25.2793ZM22.2471 15.5703V16.5078H19.2734C19.3467 18.0312 20.7529 19.3643 22.6426 19.8623L22.1152 20.7412C20.5405 20.3164 19.2881 19.335 18.7021 18.0605C18.1309 19.4375 16.8857 20.4849 15.3037 20.9609L14.7617 20.0674C16.6514 19.5107 18.0356 18.1411 18.1162 16.5078H15.1133V15.5703H18.1162V14.0762H19.2734V15.5703H22.2471Z" fill="black"/>
</svg>
