<svg width="42" height="49" viewBox="0 0 42 49" fill="none" xmlns="http://www.w3.org/2000/svg">
<path fill-rule="evenodd" clip-rule="evenodd" d="M42 21C42 9.40202 32.598 0 21 0C9.40202 0 0 9.40202 0 21C0 23.8711 0.576173 26.6076 1.6192 29.1003C5.94533 40.912 21.1104 49 21.1104 49C21.1104 49 39.7389 39.0648 41.5928 25.1361C41.8599 23.7989 42 22.4158 42 21Z" fill="white"/>
<path fill-rule="evenodd" clip-rule="evenodd" d="M38.6509 24.7849L38.6318 24.8814L38.619 24.9789C37.8426 30.8763 33.4427 36.2795 28.6948 40.4277C26.3812 42.4489 24.1126 44.0616 22.42 45.1691C21.9283 45.4908 21.4872 45.7686 21.1104 46C20.8599 45.8462 20.5811 45.672 20.2779 45.4779C18.8615 44.5714 16.9286 43.2433 14.8719 41.5641C10.6804 38.142 6.31788 33.5375 4.4362 28.3436L4.41287 28.2792L4.38668 28.2159C3.4944 26.0601 3 23.691 3 21.1975C3 11.1473 11.0589 3 21 3C30.9411 3 39 11.1473 39 21.1975C39 22.4283 38.8796 23.6276 38.6509 24.7849Z" fill="#F75751"/>
<path d="M29 21C29 16.5817 25.4183 13 21 13C16.5817 13 13 16.5817 13 21C13 25.4183 16.5817 29 21 29C25.4183 29 29 25.4183 29 21Z" fill="white"/>
<path d="M25.2646 14.1641V27.2158H24.1074V14.1641H25.2646ZM18.3359 15.1748C20.2695 15.1895 21.6611 16.9473 21.6611 19.7158C21.6611 22.4844 20.2695 24.2422 18.3359 24.2422C16.3877 24.2422 15.0107 22.4844 15.0107 19.7158C15.0107 16.9473 16.3877 15.1895 18.3359 15.1748ZM18.3359 16.2002C17.0322 16.2148 16.124 17.5918 16.124 19.7158C16.124 21.8398 17.0322 23.2168 18.3359 23.2168C19.6396 23.2168 20.5479 21.8398 20.5479 19.7158C20.5479 17.5918 19.6396 16.2148 18.3359 16.2002Z" fill="black"/>
</svg>
