<svg width="42" height="49" viewBox="0 0 42 49" fill="none" xmlns="http://www.w3.org/2000/svg">
<path fill-rule="evenodd" clip-rule="evenodd" d="M42 21C42 9.40202 32.598 0 21 0C9.40202 0 0 9.40202 0 21C0 23.8711 0.576173 26.6076 1.6192 29.1003C5.94533 40.912 21.1104 49 21.1104 49C21.1104 49 39.7389 39.0648 41.5928 25.1361C41.8599 23.7989 42 22.4158 42 21Z" fill="white"/>
<path fill-rule="evenodd" clip-rule="evenodd" d="M38.6509 24.7849L38.6318 24.8814L38.619 24.9789C37.8426 30.8763 33.4427 36.2795 28.6948 40.4277C26.3812 42.4489 24.1126 44.0616 22.42 45.1691C21.9283 45.4908 21.4872 45.7686 21.1104 46C20.8599 45.8462 20.5811 45.672 20.2779 45.4779C18.8615 44.5714 16.9286 43.2433 14.8719 41.5641C10.6804 38.142 6.31788 33.5375 4.4362 28.3436L4.41287 28.2792L4.38668 28.2159C3.4944 26.0601 3 23.691 3 21.1975C3 11.1473 11.0589 3 21 3C30.9411 3 39 11.1473 39 21.1975C39 22.4283 38.8796 23.6276 38.6509 24.7849Z" fill="#F75751"/>
<path d="M29 21C29 16.5817 25.4183 13 21 13C16.5817 13 13 16.5817 13 21C13 25.4183 16.5817 29 21 29C25.4183 29 29 25.4183 29 21Z" fill="white"/>
<path d="M20.46 15.0137C23.2285 15.0283 25.2207 16.376 25.2207 18.4268C25.2207 20.3677 23.4922 21.6567 21.0166 21.8105V24.5498H26.4512V25.5166H14.5273V24.5498H19.8887V21.8105C17.4204 21.6494 15.6992 20.3604 15.6992 18.4268C15.6992 16.376 17.6914 15.0283 20.46 15.0137ZM20.46 15.9658C18.3506 15.9658 16.8125 16.9619 16.8125 18.4268C16.8125 19.9355 18.3506 20.9023 20.46 20.917C22.5693 20.9023 24.1074 19.9355 24.1074 18.4268C24.1074 16.9619 22.5693 15.9658 20.46 15.9658Z" fill="black"/>
</svg>
