<svg width="42" height="49" viewBox="0 0 42 49" fill="none" xmlns="http://www.w3.org/2000/svg">
<path fill-rule="evenodd" clip-rule="evenodd" d="M42 21C42 9.40202 32.598 0 21 0C9.40202 0 0 9.40202 0 21C0 23.8711 0.576173 26.6076 1.6192 29.1003C5.94533 40.912 21.1104 49 21.1104 49C21.1104 49 39.7389 39.0648 41.5928 25.1361C41.8599 23.7989 42 22.4158 42 21Z" fill="white"/>
<path fill-rule="evenodd" clip-rule="evenodd" d="M38.6509 24.7849L38.6318 24.8814L38.619 24.9789C37.8426 30.8763 33.4427 36.2795 28.6948 40.4276C26.3812 42.4489 24.1126 44.0616 22.42 45.1691C21.9283 45.4908 21.4872 45.7686 21.1104 46C20.8599 45.8462 20.5811 45.672 20.2779 45.4779C18.8615 44.5714 16.9286 43.2433 14.8719 41.5641C10.6804 38.142 6.31788 33.5375 4.4362 28.3436L4.41287 28.2792L4.38668 28.2159C3.4944 26.0601 3 23.691 3 21.1975C3 11.1473 11.0589 3 21 3C30.9411 3 39 11.1473 39 21.1975C39 22.4283 38.8796 23.6276 38.6509 24.7849Z" fill="#F75751"/>
<path d="M29 21C29 16.5817 25.4183 13 21 13C16.5817 13 13 16.5817 13 21C13 25.4183 16.5817 29 21 29C25.4183 29 29 25.4183 29 21Z" fill="white"/>
<path d="M20.8828 15.248C23.0801 15.2627 25.1602 16.5664 25.1602 20.4189C25.1748 24.0225 23.4609 26.1465 20.7949 26.1465C18.6562 26.1465 17.2061 24.8135 16.9863 23.0117H19.1543C19.3301 23.7881 19.9453 24.2568 20.7949 24.2568C22.2451 24.2568 23.0068 22.9678 23.0068 20.8438H22.9189C22.4209 21.7812 21.3809 22.3379 20.1943 22.3379C18.29 22.3379 16.8838 20.9023 16.8691 18.9248C16.8691 16.7861 18.4805 15.2334 20.8828 15.248ZM20.8975 16.9766C19.8135 16.9766 19.0078 17.8115 19.0225 18.8662C19.0225 19.9062 19.7988 20.7266 20.8828 20.7266C21.9521 20.7266 22.7871 19.877 22.7871 18.8516C22.7725 17.8408 21.9814 16.9766 20.8975 16.9766Z" fill="black"/>
</svg>
