<svg width="42" height="49" viewBox="0 0 42 49" fill="none" xmlns="http://www.w3.org/2000/svg">
<path fill-rule="evenodd" clip-rule="evenodd" d="M42 21C42 9.40202 32.598 0 21 0C9.40202 0 0 9.40202 0 21C0 23.8711 0.576173 26.6076 1.6192 29.1003C5.94533 40.912 21.1104 49 21.1104 49C21.1104 49 39.7389 39.0648 41.5928 25.1361C41.8599 23.7989 42 22.4158 42 21Z" fill="white"/>
<path fill-rule="evenodd" clip-rule="evenodd" d="M38.6509 24.7849L38.6318 24.8814L38.619 24.9789C37.8426 30.8763 33.4427 36.2795 28.6948 40.4276C26.3812 42.4489 24.1126 44.0616 22.42 45.1691C21.9283 45.4908 21.4872 45.7686 21.1104 46C20.8599 45.8462 20.5811 45.672 20.2779 45.4779C18.8615 44.5714 16.9286 43.2433 14.8719 41.5641C10.6804 38.142 6.31788 33.5375 4.4362 28.3436L4.41287 28.2792L4.38668 28.2159C3.4944 26.0601 3 23.691 3 21.1975C3 11.1473 11.0589 3 21 3C30.9411 3 39 11.1473 39 21.1975C39 22.4283 38.8796 23.6276 38.6509 24.7849Z" fill="#F75751"/>
<path d="M29 21C29 16.5817 25.4183 13 21 13C16.5817 13 13 16.5817 13 21C13 25.4183 16.5817 29 21 29C25.4183 29 29 25.4183 29 21Z" fill="white"/>
<path d="M20.9707 26.1465C18.6416 26.1465 16.9717 24.8574 16.9277 23.0117H19.1543C19.1982 23.8027 19.96 24.3301 20.9854 24.3301C22.04 24.3301 22.8018 23.7295 22.7871 22.8799C22.8018 22.0156 22.0254 21.4004 20.7803 21.4004H19.7988V19.7744H20.7803C21.8203 19.7744 22.5527 19.2031 22.5527 18.3682C22.5527 17.5625 21.9375 17.0059 21 17.0059C20.0625 17.0059 19.2861 17.5332 19.2568 18.3389H17.1475C17.1768 16.5078 18.832 15.248 21 15.248C23.2119 15.248 24.6914 16.5518 24.6768 18.2363C24.6914 19.4229 23.8564 20.2725 22.6699 20.4775V20.5654C24.2227 20.7559 25.0869 21.708 25.0723 23.0264C25.0869 24.8428 23.3584 26.1465 20.9707 26.1465Z" fill="black"/>
</svg>
