<svg width="42" height="49" viewBox="0 0 42 49" fill="none" xmlns="http://www.w3.org/2000/svg">
<path fill-rule="evenodd" clip-rule="evenodd" d="M42 21C42 9.40202 32.598 0 21 0C9.40202 0 0 9.40202 0 21C0 23.8711 0.576173 26.6076 1.6192 29.1003C5.94533 40.912 21.1104 49 21.1104 49C21.1104 49 39.7389 39.0648 41.5928 25.1361C41.8599 23.7989 42 22.4158 42 21Z" fill="white"/>
<path fill-rule="evenodd" clip-rule="evenodd" d="M38.6509 24.7849L38.6318 24.8814L38.619 24.9789C37.8426 30.8763 33.4427 36.2795 28.6948 40.4276C26.3812 42.4489 24.1126 44.0616 22.42 45.1691C21.9283 45.4908 21.4872 45.7686 21.1104 46C20.8599 45.8462 20.5811 45.672 20.2779 45.4779C18.8615 44.5714 16.9286 43.2433 14.8719 41.5641C10.6804 38.142 6.31788 33.5375 4.4362 28.3436L4.41287 28.2792L4.38668 28.2159C3.4944 26.0601 3 23.691 3 21.1975C3 11.1473 11.0589 3 21 3C30.9411 3 39 11.1473 39 21.1975C39 22.4283 38.8796 23.6276 38.6509 24.7849Z" fill="#F75751"/>
<path d="M29 21C29 16.5817 25.4183 13 21 13C16.5817 13 13 16.5817 13 21C13 25.4183 16.5817 29 21 29C25.4183 29 29 25.4183 29 21Z" fill="white"/>
<path d="M21.1172 26.1465C18.9199 26.1318 16.8398 24.8281 16.8398 20.9463C16.8398 17.3721 18.5537 15.248 21.2051 15.248C23.3438 15.248 24.7939 16.5957 25.0137 18.3389H22.8457C22.6699 17.5918 22.0547 17.1377 21.2051 17.1377C19.7695 17.1377 19.0078 18.4414 18.9932 20.5215H19.0957C19.5791 19.584 20.6338 19.0273 21.8057 19.0273C23.71 19.0273 25.1309 20.4629 25.1309 22.4551C25.1309 24.6084 23.5049 26.1611 21.1172 26.1465ZM21.1025 24.4033C22.1865 24.4033 22.9922 23.583 22.9922 22.5137C22.9922 21.459 22.2158 20.624 21.1318 20.624C20.0479 20.624 19.2275 21.4736 19.2129 22.5137C19.2275 23.5537 20.0186 24.4033 21.1025 24.4033Z" fill="black"/>
</svg>
